# xmcd
#
# Track frame offsets: 
#        150
#        20918
#        46585
#        67632
#        94112
#        115272
#        137855
#        160170
#        190970
#        219079
#
# Disc length: 3142 seconds
#
# Revision: 0
# Processed by: cddbd v1.5.2PL0 Copyright (c) Steve Scherf et al.
# Submitted via: ExactAudioCopyFreeDBPlugin 1.0
#
DISCID=7f0c440a
DTITLE=Pete Karnes Blues Band - I'm Still Here
DYEAR=2014
DGENRE=Blues
TTITLE0=I Love My Baby
TTITLE1=Play With Your Poodle
TTITLE2=Rayma's Song
TTITLE3=That Ain't Right
TTITLE4=South Of The Border
TTITLE5=Looking For A Woman
TTITLE6=Boogie Time
TTITLE7=My Family
TTITLE8=Lil' Jazzy
TTITLE9=Bicycle Man
EXTD=
EXTT0=
EXTT1=
EXTT2=
EXTT3=
EXTT4=
EXTT5=
EXTT6=
EXTT7=
EXTT8=
EXTT9=
PLAYORDER=
